<svg width="143" height="29" viewBox="0 0 143 29" fill="none" xmlns="http://www.w3.org/2000/svg">
<path d="M10.3461 23.42C15.9261 23.42 18.5661 20.3 19.6461 15.83L15.0561 14.81C14.2761 17.84 12.9861 19.49 10.3761 19.49C7.01613 19.49 5.15613 16.55 5.15613 11.87C5.15613 7.28 6.95613 4.43 10.3161 4.43C12.9261 4.43 14.0061 6.17 14.7261 8.72L19.3461 7.37C18.3861 3.38 15.9561 0.38 10.3461 0.38C4.73613 0.38 0.266133 4.16 0.266133 11.87C0.266133 19.7 4.55613 23.42 10.3461 23.42ZM29.7486 23.33C33.6186 23.33 37.9086 21.23 37.9086 15.02C37.9086 8.75 33.6186 6.68 29.7486 6.68C25.8486 6.68 21.5586 8.75 21.5586 15.02C21.5586 21.23 25.8786 23.33 29.7486 23.33ZM29.7486 19.94C27.2886 19.94 26.3886 17.72 26.3886 15.05C26.3886 12.17 27.4386 10.22 29.7486 10.22C32.1486 10.22 33.0786 12.38 33.0786 15.05C33.0786 17.96 32.0286 19.94 29.7486 19.94ZM40.7399 23H45.5699V12.26C46.6499 11.33 47.7599 10.67 49.0499 10.67C50.3999 10.67 50.9399 11.42 50.9399 12.86V23H55.7399V11.33C55.7399 8.03 53.7899 6.68 51.0899 6.68C48.2999 6.68 46.5299 8.27 45.5699 9.53V7.01H40.7399V23ZM65.5548 29C70.8648 29 74.7348 27.41 74.7348 24.11C74.7348 21.11 72.5148 19.79 67.0248 19.58L64.6248 19.43C63.4548 19.37 62.8248 19.25 62.8248 18.65C62.8248 18.35 63.0348 18.11 63.3648 17.84C64.0848 17.99 64.9248 18.11 65.8248 18.11C70.4148 18.11 72.9048 15.65 72.9048 12.41C72.9048 11.78 72.7848 11.24 72.6048 10.82C73.7448 10.52 74.7348 10.46 75.3048 10.46V6.77C73.9848 6.86 72.2748 7.49 71.1948 8.42C69.9948 7.34 68.1948 6.68 65.8248 6.68C61.2048 6.68 58.6248 9.2 58.6248 12.41C58.6248 14.33 59.5248 15.98 61.2648 17C60.0048 17.81 58.9548 18.95 58.9548 20.27C58.9548 21.11 59.3448 21.74 60.0348 22.19C58.5648 22.79 57.2748 23.84 57.2748 25.4C57.2748 27.65 59.3148 29 65.5548 29ZM65.8848 15.44C64.1448 15.44 63.1548 14.21 63.1548 12.59C63.1548 10.97 64.1148 9.74 65.8848 9.74C67.6848 9.74 68.6148 10.97 68.6148 12.59C68.6148 14.21 67.6548 15.44 65.8848 15.44ZM66.3348 26.57C63.0648 26.57 61.7748 25.91 61.7748 24.53C61.7748 23.99 62.0748 23.48 62.6748 23.09C63.0048 23.12 63.3648 23.15 63.7248 23.18L66.2448 23.3C70.0248 23.48 70.5048 23.93 70.5048 24.92C70.5048 25.97 68.7948 26.57 66.3348 26.57ZM77.7118 23H82.5418V13.07C83.4418 11.9 84.8818 10.88 86.8018 10.88C87.1018 10.88 87.8818 10.94 88.0618 10.97L88.1218 6.68H87.9718C84.9718 6.68 83.4418 8.33 82.5718 9.68H82.5418V7.01H77.7118V23ZM93.4386 23.24C95.8086 23.24 97.5486 22.31 99.0186 20.66C99.0186 21.56 99.1686 22.34 99.3786 23H104.179C103.849 22.19 103.729 21.02 103.729 19.1V12.95C103.729 8.84 101.929 6.68 97.5486 6.68C93.5586 6.68 91.1586 8.09 89.5686 9.53L91.6086 12.29C93.0786 11.15 94.8186 10.31 96.8586 10.31C98.4186 10.31 99.0186 11.06 99.0186 12.23V12.62C91.9986 13.19 88.8786 15.23 88.8786 18.92C88.8786 21.65 90.9786 23.24 93.4386 23.24ZM95.3586 19.61C94.3086 19.61 93.5886 19.1 93.5886 18.08C93.5886 16.61 95.2086 15.65 99.0186 15.26V18.23C98.2086 19.04 97.0386 19.61 95.3586 19.61ZM113.963 23.21C115.013 23.21 116.783 23.06 117.143 22.97V19.52C116.813 19.64 116.093 19.7 115.553 19.7C113.813 19.7 113.333 19.16 113.333 17.45V10.52H117.443V7.01H113.333V1.52H108.533V7.01H105.863V10.52H108.533V18.5C108.533 21.5 109.223 23.21 113.963 23.21ZM126.346 23.33C130.036 23.33 133.396 21.8 133.396 17.93C133.396 14.3 130.066 13.58 126.916 13.04C124.936 12.68 124.066 12.29 124.066 11.33C124.066 10.46 124.846 9.92 126.226 9.92C127.726 9.92 129.316 10.55 130.936 11.66L132.826 8.93C131.056 7.52 129.076 6.68 125.806 6.68C122.236 6.68 119.596 8.54 119.596 11.75C119.596 15.5 122.836 16.22 125.866 16.76C128.056 17.15 128.896 17.57 128.896 18.68C128.896 19.73 127.846 20.24 126.346 20.24C124.396 20.24 122.236 19.43 120.796 18.17L118.876 20.87C120.496 22.25 122.836 23.33 126.346 23.33ZM137.901 15.98H141.531L142.731 0.8H136.671L137.901 15.98ZM137.121 23H142.281V18.56H137.121V23Z" fill="url(#paint0_linear_169_19495)"/>
<defs>
<linearGradient id="paint0_linear_169_19495" x1="-1" y1="-7.39474" x2="128.143" y2="67.5101" gradientUnits="userSpaceOnUse">
<stop stop-color="#53E88B"/>
<stop offset="1" stop-color="#15BE77"/>
</linearGradient>
</defs>
</svg>
